# xmcd CD database file
#
# Track frame offsets:
#	150
#	10693
#	25149
#	37960
#	49719
#	62117
#	76507
#	88572
#	103329
#	116779
#	128843
#	140023
#
# Disc length: 2062 seconds
#
# Revision: 1
# Processed by: cddbd v1.5.1PL0 Copyright (c) Steve Scherf et al.
# Submitted via: FreeDB 11.2
#
DISCID=95080c0c
DTITLE=Henry Mancini - Music of Hawaii
DYEAR=1966
DGENRE=Easy Listening
TTITLE0=Hawaii (Main Title)
TTITLE1=Quiet Village
TTITLE2=The Moon of Manakoora
TTITLE3=Pearly Shells (Pupu O Ewa)
TTITLE4=Blue Hawaii
TTITLE5=Driftwood and Dreams
TTITLE6=Hawaiian War Chant (Ta-Hu-Wa-Hu-Wai)
TTITLE7=Adventures in Paradise
TTITLE8=Beyond the Reef
TTITLE9=Tiny Bubbles (Hua Li'l)
TTITLE10=The Hawaiian Wedding Song (Ke Kali Nei Au)
TTITLE11=Aloha Oe (Farewell to Thee)
EXTD=
EXTT0=
EXTT1=
EXTT2=
EXTT3=
EXTT4=
EXTT5=
EXTT6=
EXTT7=
EXTT8=
EXTT9=
EXTT10=
EXTT11=
PLAYORDER=
